<?xml version="1.0" encoding="utf-8"?>
<!-- Svg Vector Icons : http://www.onlinewebfonts.com/icon -->
<!DOCTYPE svg PUBLIC "-//W3C//DTD SVG 1.1//EN" "http://www.w3.org/Graphics/SVG/1.1/DTD/svg11.dtd">
<svg version="1.1" xmlns="http://www.w3.org/2000/svg" xmlns:xlink="http://www.w3.org/1999/xlink" x="0px" y="0px" viewBox="0 0 1000 1000" enable-background="new 0 0 1000 1000" xml:space="preserve">
<metadata> Svg Vector Icons : http://www.onlinewebfonts.com/icon </metadata>
<g><g><g><path d="M744,169.7l-18.5,7.7c-28.3,11.8-45,27.3-59.5,42.9c13.2,6.2,25.9,14,38,23.4c26.9,21.9,45.1,45.6,59.3,77.1l21.4,47l-51.3-6.3c-36.7-4.4-61.3,3.8-85.2,11.7c-9.7,3.3-19.7,6.6-30.1,8.9c0.7,4.3,1.2,8.7,1.5,13c2.3,26-1.2,52.3-10.2,78.4c-12,32.6-28.4,57.5-53.5,81.2l-16.9,15.9l-19.2-13c-28.5-19.4-48.7-41.3-65.5-71.1c-11.2-21-18.5-42.4-21.5-64.4c-11.7,2-23.3,2.4-34.7,2.9c-25.1,1-51,1.9-83.8,19.1l-45.7,24.1l3.4-51.5c2.2-34.4,10.8-62.9,28-92.5c10.4-17.2,22.7-32.1,36.8-44.6c-3.2-2.8-6.4-5.8-9.6-8.7c-18.5-17-37.5-34.7-72.9-45.7L205,209.7l30.2-26.6C64.5,234.5,10,384.7,10,553.2c0,236.1,219.4,427.5,490,427.5c270.6,0,490-191.4,490-427.5C990,379.2,927.2,213.9,744,169.7z"/><path d="M370.7,288.7c-17.9,12.5-33.3,28.8-45.7,49.2c-12.1,20.8-21.9,45-24.1,79.8c72.5-38.1,117.7-8.8,160-37.8c-0.9,9.1-1.1,18.1-0.3,27.2c1.5,21.8,7.8,43.3,19.1,64.4c11.8,21,27.6,41.7,56.6,61.3c25.4-24,37.7-46.9,46.1-69.6c7.9-22.6,10.7-44.7,8.7-66.5c-1.2-14.2-4.4-28.2-9.5-42c45.8,6.6,78.4-32.1,155.6-22.6c-14.5-31.8-32.2-51-50.9-66.2c-18.8-14.8-38.9-24.5-60.1-29.8c-4.4-1.1-8.7-1.9-13.2-2.6c26.8-22.4,44-59.3,101.5-83.3c-28.4-20.4-53.3-28.3-77.1-32.2c-23.7-3.5-46-2-67,4c-21.1,5.8-41,16-59.6,31.1c-7.1,6-14,13-20.7,20.6C464.5,91,434.3,25.1,431.6,19.2l-19.8,9.2c0.6,1.4,32.2,70.1,58.3,155.1c-1.4-1.3-2.8-2.4-4.3-3.5c-19.9-13.3-40.7-21.5-62.2-25.3c-21.5-3.9-43.9-3.2-67.1,2.4c-23.3,6.2-47.3,16.3-73.6,39.4c69.8,21.7,86.3,65.9,124.7,81.8C381.8,281.6,376.1,284.9,370.7,288.7z M515.7,246.6c0.3,0,0.6,0.2,0.8,0.2c-1,0.5-2.1,1-3.1,1.5C514.1,247.8,514.9,247.2,515.7,246.6z"/></g></g><g></g><g></g><g></g><g></g><g></g><g></g><g></g><g></g><g></g><g></g><g></g><g></g><g></g><g></g><g></g></g>
</svg>